<svg width="193" height="33" viewBox="0 0 193 33" fill="none" xmlns="http://www.w3.org/2000/svg">
<path fill-rule="evenodd" clip-rule="evenodd" d="M27.013 4.76562H39.8514C40.4167 4.76562 40.8734 5.22324 40.8734 5.78792V18.6265C40.8734 21.5429 38.4867 23.9284 35.5719 23.9284H22.7335C22.1682 23.9284 21.7114 23.4707 21.7114 22.9061V10.0675C21.7114 7.15166 24.0953 4.76562 27.013 4.76562ZM27.013 6.35118V6.81022C25.2201 6.81022 23.7555 8.27616 23.7555 10.0675V21.8838H35.5719C37.3619 21.8838 38.8293 20.4181 38.8293 18.6265V6.81022H27.013V6.35118Z" fill="white"/>
<path fill-rule="evenodd" clip-rule="evenodd" d="M27.066 13.3332C27.6055 13.3606 28.0337 13.8073 28.0337 14.3543V27.1927C28.0337 30.1088 25.65 32.4948 22.7326 32.4948H9.89501C9.32978 32.4948 8.87305 32.0369 8.87305 31.4725V18.6341C8.87305 15.7177 11.2567 13.332 14.1742 13.332H27.0117L27.066 13.3332ZM25.9898 15.3766H14.1742C12.3814 15.3766 10.917 16.8422 10.917 18.6341V30.4502H22.7326C24.5253 30.4502 25.9898 28.9843 25.9898 27.1927V15.3766Z" fill="white"/>
<path fill-rule="evenodd" clip-rule="evenodd" d="M5.61382 0.484375H18.4518C19.0171 0.484375 19.4767 0.942282 19.4767 1.50666V14.3456C19.4767 17.2614 17.0901 19.6471 14.1725 19.6471H1.3345C0.769253 19.6471 0.3125 19.1895 0.3125 18.6248V5.78648C0.3125 2.87037 2.69908 0.484375 5.61382 0.484375ZM5.61382 1.81897V2.52895C3.82387 2.52895 2.35653 3.99485 2.35653 5.78648V17.6025H14.1725C15.9653 17.6025 17.4298 16.1369 17.4298 14.3456V2.52895H5.61382V1.81897Z" fill="white"/>
<path fill-rule="evenodd" clip-rule="evenodd" d="M157.01 5.79297H160.119V8.90277C160.119 9.4729 159.654 9.93927 159.083 9.93927H155.973V6.82946C155.973 6.25933 156.44 5.79297 157.01 5.79297Z" fill="white"/>
<path d="M44.1162 26.9591V5.78125H50.6394C52.5159 5.78125 54.1839 6.19825 55.6434 7.03226C57.1029 7.86627 58.2646 9.05772 59.0688 10.6066C59.9028 12.1555 60.3198 13.9128 60.3198 15.8787V16.8617C60.3198 18.8275 59.9028 20.5849 59.0986 22.104C58.2944 23.6529 57.1625 24.8443 55.6732 25.6783C54.2137 26.5123 52.5457 26.9591 50.6989 26.9591H44.1162ZM48.4948 9.32579V23.4444H50.6096C52.3074 23.4444 53.618 22.9082 54.5115 21.7764C55.4051 20.6743 55.8817 19.0658 55.8817 17.0106V15.8787C55.8817 13.7341 55.4647 12.0959 54.5711 10.9938C53.6775 9.86194 52.3669 9.32579 50.6394 9.32579H48.4948Z" fill="white"/>
<path d="M75.4408 18.2914H67.0709V26.9591H62.6924V5.78125H76.4833V9.32579H67.0709V14.7766H75.4408V18.2914Z" fill="white"/>
<path d="M87.115 15.1632C86.5491 15.0739 86.0427 15.0441 85.5959 15.0441C84.0173 15.0441 82.9748 15.5802 82.4684 16.6525V26.9585H78.2686V11.2315H82.2599L82.3492 13.108C83.213 11.6485 84.3747 10.9336 85.864 10.9336C86.3406 10.9336 86.7576 10.9932 87.1746 11.1123L87.115 15.1632Z" fill="white"/>
<path d="M98.6883 26.9585C98.5096 26.5713 98.3606 26.1245 98.2713 25.5585C97.2585 26.6904 95.948 27.2563 94.3097 27.2563C92.7609 27.2563 91.4801 26.8096 90.4673 25.916C89.4546 25.0224 88.9482 23.8905 88.9482 22.5502C88.9482 20.8821 89.5737 19.6013 90.795 18.7078C92.046 17.8142 93.8332 17.3674 96.1565 17.3376H98.0926V16.444C98.0926 15.7291 97.9138 15.1334 97.5564 14.6866C97.1692 14.2696 96.5735 14.0313 95.7692 14.0313C95.0544 14.0313 94.5182 14.2101 94.1012 14.5377C93.714 14.8951 93.5055 15.3717 93.5055 15.9376H89.3057C89.3057 15.0441 89.5737 14.1803 90.1397 13.4058C90.7056 12.6314 91.5098 12.0357 92.5226 11.5889C93.5651 11.1421 94.7267 10.9336 96.0075 10.9336C97.9436 10.9336 99.4627 11.4102 100.624 12.3931C101.756 13.376 102.322 14.7462 102.322 16.5036V23.3246C102.322 24.8139 102.531 25.9458 102.948 26.7202V26.9585H98.6883ZM95.2331 24.0395C95.8288 24.0395 96.4245 23.8905 96.9309 23.6225C97.4671 23.3544 97.8543 22.9672 98.0926 22.5204V19.8098H96.5437C94.4289 19.8098 93.297 20.5247 93.1779 21.9842L93.1481 22.2225C93.1481 22.7587 93.3566 23.1757 93.714 23.5331C94.0714 23.8607 94.5778 24.0395 95.2331 24.0395Z" fill="white"/>
<path d="M109.416 11.2315L109.535 13.0484C110.667 11.6485 112.186 10.9336 114.062 10.9336C115.73 10.9336 116.981 11.4102 117.786 12.3931C118.62 13.3761 119.037 14.8356 119.037 16.8014V26.9585H114.837V16.8908C114.837 15.9972 114.658 15.3419 114.271 14.9547C113.884 14.5377 113.228 14.359 112.335 14.359C111.143 14.359 110.25 14.8654 109.654 15.8483V26.9585H105.454V11.2315H109.416Z" fill="white"/>
<path d="M121.726 18.946C121.726 16.4738 122.292 14.5079 123.394 13.0782C124.496 11.6485 125.985 10.9336 127.921 10.9336C129.589 10.9336 130.929 11.5889 131.942 12.8697L132.21 11.2315H135.904V31.3668H131.704V25.6181C130.721 26.6904 129.47 27.2563 127.891 27.2563C126.015 27.2563 124.525 26.5117 123.394 25.082C122.292 23.6224 121.726 21.5672 121.726 18.946ZM125.925 19.2439C125.925 20.763 126.193 21.8949 126.73 22.6693C127.266 23.4735 128.01 23.8607 128.964 23.8607C130.244 23.8607 131.168 23.3544 131.704 22.3119V15.8185C131.168 14.8058 130.274 14.3292 128.993 14.3292C128.01 14.3292 127.266 14.7164 126.73 15.4909C126.193 16.2951 125.925 17.5461 125.925 19.2439Z" fill="white"/>
<path d="M148.495 25.353C147.452 26.6338 146.023 27.2593 144.176 27.2593C142.478 27.2593 141.197 26.7529 140.304 25.7998C139.44 24.8168 138.963 23.4169 138.963 21.5404V11.2344H143.163V21.3914C143.163 23.0297 143.908 23.8637 145.397 23.8637C146.827 23.8637 147.81 23.3573 148.346 22.3744V11.2344H152.546V26.9614H148.614L148.495 25.353Z" fill="white"/>
<path d="M160.189 11.2344H155.959V26.9614H160.189V11.2344Z" fill="white"/>
<path d="M172.732 26.9585C172.554 26.5713 172.405 26.1245 172.315 25.5585C171.302 26.6904 169.992 27.2563 168.354 27.2563C166.805 27.2563 165.524 26.8096 164.511 25.916C163.499 25.0224 162.992 23.8905 162.992 22.5502C162.992 20.8821 163.618 19.6013 164.839 18.7078C166.09 17.8142 167.877 17.3674 170.2 17.3376H172.136V16.444C172.136 15.7291 171.958 15.1334 171.6 14.6866C171.213 14.2696 170.617 14.0313 169.813 14.0313C169.098 14.0313 168.562 14.2101 168.145 14.5377C167.758 14.8951 167.549 15.3717 167.549 15.9376H163.35C163.35 15.0441 163.618 14.1803 164.184 13.4058C164.75 12.6314 165.554 12.0357 166.567 11.5889C167.609 11.1421 168.771 10.9336 170.051 10.9336C171.988 10.9336 173.507 11.4102 174.668 12.3931C175.8 13.376 176.366 14.7462 176.366 16.5036V23.3246C176.366 24.8139 176.575 25.9458 176.992 26.7202V26.9585H172.732ZM169.277 24.0395C169.873 24.0395 170.468 23.8905 170.975 23.6225C171.511 23.3544 171.898 22.9672 172.136 22.5204V19.8098H170.588C168.473 19.8098 167.341 20.5247 167.222 21.9842L167.192 22.2225C167.192 22.7587 167.401 23.1757 167.758 23.5331C168.115 23.8607 168.622 24.0395 169.277 24.0395Z" fill="white"/>
<path d="M188.106 22.6097C188.106 22.1034 187.868 21.6864 187.362 21.3885C186.855 21.0906 186.021 20.8226 184.889 20.6141C181.166 19.8098 179.29 18.2312 179.29 15.8185C179.29 14.4483 179.856 13.2569 181.017 12.3335C182.179 11.4102 183.698 10.9336 185.574 10.9336C187.57 10.9336 189.179 11.4102 190.37 12.3335C191.561 13.2867 192.157 14.5079 192.157 15.9972H187.957C187.957 15.4015 187.749 14.8951 187.362 14.5079C186.974 14.1207 186.379 13.9122 185.545 13.9122C184.86 13.9122 184.294 14.0909 183.906 14.4186C183.519 14.7164 183.34 15.1334 183.34 15.6398C183.34 16.0866 183.549 16.4738 183.996 16.7419C184.443 17.0397 185.187 17.278 186.23 17.4865C187.272 17.695 188.166 17.9333 188.881 18.2014C191.085 19.0056 192.217 20.4353 192.217 22.431C192.217 23.8607 191.591 25.0224 190.37 25.916C189.119 26.8096 187.54 27.2563 185.574 27.2563C184.264 27.2563 183.102 27.0181 182.06 26.5415C181.047 26.0649 180.243 25.4394 179.677 24.6054C179.081 23.8012 178.783 22.9076 178.783 21.9544H182.775C182.804 22.6991 183.102 23.265 183.609 23.682C184.115 24.0692 184.8 24.2777 185.664 24.2777C186.468 24.2777 187.094 24.1288 187.511 23.8012C187.898 23.5033 188.106 23.1161 188.106 22.6097Z" fill="white"/>
</svg>
