<svg width="77" height="102" viewBox="0 0 77 102" fill="none" xmlns="http://www.w3.org/2000/svg">
<path d="M77 37C77 57.4345 59.763 74 38.5 74C17.237 74 0 57.4345 0 37C0 16.5655 17.237 0 38.5 0C59.763 0 77 16.5655 77 37Z" fill="#D9D9D9"/>
<path d="M30.6 89.12C29.68 89.12 28.96 88.776 28.44 88.088C27.92 87.392 27.66 86.296 27.66 84.8C27.66 83.304 27.92 82.212 28.44 81.524C28.96 80.828 29.68 80.48 30.6 80.48C31.52 80.48 32.24 80.828 32.76 81.524C33.28 82.212 33.54 83.304 33.54 84.8C33.54 86.296 33.28 87.392 32.76 88.088C32.24 88.776 31.52 89.12 30.6 89.12ZM30.6 88.28C31.104 88.28 31.52 88.008 31.848 87.464C32.176 86.912 32.34 86.024 32.34 84.8C32.34 83.576 32.176 82.692 31.848 82.148C31.52 81.596 31.104 81.32 30.6 81.32C30.096 81.32 29.68 81.596 29.352 82.148C29.024 82.692 28.86 83.576 28.86 84.8C28.86 86.024 29.024 86.912 29.352 87.464C29.68 88.008 30.096 88.28 30.6 88.28ZM35.0953 83H35.9353L36.0553 83.72H36.1153C36.2033 83.592 36.3433 83.452 36.5353 83.3C36.9273 83.02 37.3673 82.88 37.8553 82.88C38.2473 82.88 38.6073 83 38.9353 83.24C39.2633 83.472 39.5233 83.824 39.7153 84.296C39.9153 84.76 40.0153 85.328 40.0153 86C40.0153 87.016 39.7953 87.792 39.3553 88.328C38.9153 88.856 38.3353 89.12 37.6153 89.12C37.2953 89.12 36.9833 89.06 36.6793 88.94C36.5273 88.892 36.3993 88.832 36.2953 88.76V91.04L35.9353 91.4H35.0953V83ZM37.4353 88.28C37.8513 88.28 38.1833 88.1 38.4313 87.74C38.6873 87.372 38.8153 86.792 38.8153 86C38.8153 85.24 38.6953 84.68 38.4553 84.32C38.2233 83.96 37.9233 83.78 37.5553 83.78C37.2593 83.78 36.9593 83.9 36.6553 84.14C36.5273 84.252 36.4073 84.372 36.2953 84.5V88.04C36.3753 88.08 36.4833 88.12 36.6193 88.16C36.8913 88.24 37.1633 88.28 37.4353 88.28ZM43.8572 89.12C43.0252 89.12 42.3772 88.856 41.9132 88.328C41.4492 87.8 41.2172 87.024 41.2172 86C41.2172 84.984 41.4412 84.212 41.8892 83.684C42.3372 83.148 42.9332 82.88 43.6772 82.88C44.4212 82.88 45.0172 83.148 45.4652 83.684C45.9132 84.212 46.1372 84.984 46.1372 86V86.18L45.8972 86.42H42.4172C42.4172 87.036 42.5532 87.5 42.8252 87.812C43.0972 88.124 43.4812 88.28 43.9772 88.28C44.2732 88.28 44.5812 88.192 44.9012 88.016C45.0692 87.92 45.2012 87.828 45.2972 87.74H45.4172L45.8372 88.46C45.6932 88.58 45.5132 88.692 45.2972 88.796C44.8812 89.012 44.4012 89.12 43.8572 89.12ZM44.9372 85.58C44.9372 84.948 44.8212 84.48 44.5892 84.176C44.3652 83.872 44.0612 83.72 43.6772 83.72C43.2932 83.72 42.9852 83.872 42.7532 84.176C42.5292 84.48 42.4172 84.948 42.4172 85.58H44.9372ZM47.5758 83H48.4158L48.5358 83.72H48.5958C48.6838 83.592 48.8238 83.452 49.0158 83.3C49.4078 83.02 49.8478 82.88 50.3358 82.88C50.9358 82.88 51.4238 83.072 51.7998 83.456C52.1838 83.832 52.3758 84.32 52.3758 84.92V89H51.1758V84.92C51.1758 84.584 51.0678 84.312 50.8518 84.104C50.6438 83.888 50.3718 83.78 50.0358 83.78C49.7398 83.78 49.4398 83.9 49.1358 84.14C49.0078 84.252 48.8878 84.372 48.7758 84.5V89H47.5758V83Z" fill="#595959"/>
<path d="M21.765 98V91.7H25.545V92.51H23.025V94.4H25.005V95.21H23.025V98H21.765ZM28.5635 98.09C27.8135 98.09 27.2285 97.829 26.8085 97.307C26.3885 96.779 26.1785 95.96 26.1785 94.85C26.1785 93.74 26.3885 92.924 26.8085 92.402C27.2285 91.874 27.8135 91.61 28.5635 91.61C29.3135 91.61 29.8985 91.874 30.3185 92.402C30.7385 92.924 30.9485 93.74 30.9485 94.85C30.9485 95.96 30.7385 96.779 30.3185 97.307C29.8985 97.829 29.3135 98.09 28.5635 98.09ZM28.5635 97.28C28.8935 97.28 29.1635 97.094 29.3735 96.722C29.5835 96.35 29.6885 95.726 29.6885 94.85C29.6885 93.974 29.5835 93.35 29.3735 92.978C29.1635 92.606 28.8935 92.42 28.5635 92.42C28.2335 92.42 27.9635 92.606 27.7535 92.978C27.5435 93.35 27.4385 93.974 27.4385 94.85C27.4385 95.726 27.5435 96.35 27.7535 96.722C27.9635 97.094 28.2335 97.28 28.5635 97.28ZM32.1625 91.7H33.8725C34.7065 91.7 35.3185 91.871 35.7085 92.213C36.1045 92.555 36.3025 93.059 36.3025 93.725C36.3025 94.343 36.1075 94.829 35.7175 95.183C35.5435 95.339 35.3485 95.453 35.1325 95.525L36.6625 98H35.2225L33.9175 95.75H33.4225V98H32.1625V91.7ZM33.8725 94.94C34.2865 94.94 34.5835 94.847 34.7635 94.661C34.9495 94.469 35.0425 94.157 35.0425 93.725C35.0425 93.293 34.9495 92.984 34.7635 92.798C34.5835 92.606 34.2865 92.51 33.8725 92.51H33.4225V94.94H33.8725ZM41.4272 95.93L39.4922 91.7H40.7972L41.9762 94.535L42.0662 94.805L42.0932 94.94H42.1292L42.1562 94.805L42.2462 94.535L43.3892 91.7H44.6222L42.6872 95.93V98H41.4272V95.93ZM47.2842 98.09C46.5342 98.09 45.9492 97.829 45.5292 97.307C45.1092 96.779 44.8992 95.96 44.8992 94.85C44.8992 93.74 45.1092 92.924 45.5292 92.402C45.9492 91.874 46.5342 91.61 47.2842 91.61C48.0342 91.61 48.6192 91.874 49.0392 92.402C49.4592 92.924 49.6692 93.74 49.6692 94.85C49.6692 95.96 49.4592 96.779 49.0392 97.307C48.6192 97.829 48.0342 98.09 47.2842 98.09ZM47.2842 97.28C47.6142 97.28 47.8842 97.094 48.0942 96.722C48.3042 96.35 48.4092 95.726 48.4092 94.85C48.4092 93.974 48.3042 93.35 48.0942 92.978C47.8842 92.606 47.6142 92.42 47.2842 92.42C46.9542 92.42 46.6842 92.606 46.4742 92.978C46.2642 93.35 46.1592 93.974 46.1592 94.85C46.1592 95.726 46.2642 96.35 46.4742 96.722C46.6842 97.094 46.9542 97.28 47.2842 97.28ZM52.9982 98.09C52.2962 98.09 51.7532 97.901 51.3692 97.523C50.9852 97.145 50.7932 96.614 50.7932 95.93V91.7H52.0532V95.93C52.0532 96.38 52.1372 96.719 52.3052 96.947C52.4792 97.169 52.7102 97.28 52.9982 97.28C53.2862 97.28 53.5142 97.169 53.6822 96.947C53.8562 96.719 53.9432 96.38 53.9432 95.93V91.7H55.2032V95.93C55.2032 96.614 55.0112 97.145 54.6272 97.523C54.2432 97.901 53.7002 98.09 52.9982 98.09Z" fill="#D0641A"/>
</svg>
